<svg id="Layer_1" data-name="Layer 1" xmlns="http://www.w3.org/2000/svg" viewBox="0 0 32 32"><defs><style>.cls-1{fill:#f9d500;}.cls-2{fill:#ffd400;}.cls-3{fill:#ae2d25;}</style></defs><path d="M29.8,18.7h0v-.2a8,8,0,0,0,1.5-1.8,4.9,4.9,0,0,0,.5-2.7,2.3,2.3,0,0,1-1,.8c-.7.2-1-.6-1-.6h0v-.2a7.3,7.3,0,0,0,.9-2.1,6,6,0,0,0-.4-2.8,2.4,2.4,0,0,1-.6,1.1c-.6.5-1.2-.2-1.2-.2h0V9.9a6.2,6.2,0,0,0,.2-2.3,5.3,5.3,0,0,0-1.2-2.5,1.7,1.7,0,0,1-.3,1.2c-.4.6-1.1.1-1.1.1h0l-.2-.2a6.8,6.8,0,0,0-.5-2.2,4.9,4.9,0,0,0-1.9-2,1.9,1.9,0,0,1,.1,1.2c-.2.7-1.1.5-1.1.5h-.1a6.8,6.8,0,0,0-1.3-2A5.4,5.4,0,0,0,18.6.4a2.2,2.2,0,0,1,.5,1.2c0,.7-.9.7-.9.7h0a.1.1,0,0,0-.1-.1A8,8,0,0,0,16.3.8,4.9,4.9,0,0,0,13.6.3a2.3,2.3,0,0,1,.8,1c.2.7-.6,1-.6,1h-.2a7.3,7.3,0,0,0-2.1-.9,6,6,0,0,0-2.8.4,2.4,2.4,0,0,1,1.1.6c.4.6-.3,1.2-.3,1.2H9.4a6.6,6.6,0,0,0-2.3-.2A5.3,5.3,0,0,0,4.6,4.7,1.7,1.7,0,0,1,5.8,5c.6.4.1,1.1.1,1.1h0c0,.1,0,.1-.1.2a7.2,7.2,0,0,0-2.3.5A5.1,5.1,0,0,0,1.6,8.7a1.7,1.7,0,0,1,1.2-.1c.7.2.5,1.1.5,1.1h0a.1.1,0,0,0-.1.1,7.8,7.8,0,0,0-2,1.3A5.4,5.4,0,0,0-.1,13.5,2.2,2.2,0,0,1,1.1,13c.7,0,.7.9.7.9h0v.2A5.3,5.3,0,0,0,.3,15.8a4.9,4.9,0,0,0-.5,2.7,2.3,2.3,0,0,1,1-.8c.7-.2,1,.6,1,.6h0v.2a5.3,5.3,0,0,0-.9,2.1,5.6,5.6,0,0,0,.4,2.8,2.4,2.4,0,0,1,.6-1.1c.6-.4,1.2.3,1.2.3h0A7.3,7.3,0,0,0,3,25a5.3,5.3,0,0,0,1.2,2.5,1.7,1.7,0,0,1,.3-1.2c.4-.6,1.1-.1,1.1-.1h.1a15.7,15.7,0,0,0,.6,2.3,4.9,4.9,0,0,0,1.9,2,2.1,2.1,0,0,1-.1-1.3c.2-.7,1.1-.5,1.1-.5h.1a5.7,5.7,0,0,0,1.3,2A4.9,4.9,0,0,0,13,32.2a2.2,2.2,0,0,1-.5-1.1c0-.8.9-.8.9-.8h.1a8,8,0,0,0,1.8,1.5,4.9,4.9,0,0,0,2.7.5,2.4,2.4,0,0,1-.8-.9.9.9,0,0,1,.6-1.1H18a5.3,5.3,0,0,0,2.1.9,6,6,0,0,0,2.8-.4,1.7,1.7,0,0,1-1.1-.6c-.5-.6.2-1.2.2-1.2h.2a7.1,7.1,0,0,0,2.3.1A5.3,5.3,0,0,0,27,27.9a1.7,1.7,0,0,1-1.2-.3c-.6-.4-.1-1.1-.1-1.1h.1a12.6,12.6,0,0,0,2.2-.6,4.9,4.9,0,0,0,2-1.9,1.9,1.9,0,0,1-1.2.1c-.7-.2-.5-1.1-.5-1.1h.1a5.7,5.7,0,0,0,2-1.3,4.9,4.9,0,0,0,1.3-2.4,2.2,2.2,0,0,1-1.2.5C29.8,19.6,29.8,18.7,29.8,18.7Zm-2.4-2.4A11.7,11.7,0,0,1,15.8,28,11.8,11.8,0,0,1,4.1,16.3a11.7,11.7,0,0,1,23.3,0Z" transform="translate(0.2 -0.3)"/><path class="cls-1" d="M29.1,16.3A13.3,13.3,0,1,1,15.8,3.1,13.4,13.4,0,0,1,29.1,16.3ZM15.8,14.5a1.9,1.9,0,0,0-1.9,1.8,1.9,1.9,0,1,0,3.8,0A1.9,1.9,0,0,0,15.8,14.5Z" transform="translate(0.2 -0.3)"/><path class="cls-2" d="M15.8,3.1A13.2,13.2,0,0,0,9.2,4.8l5.2,10.3a1.7,1.7,0,0,1,1.4-.6,2,2,0,0,1,1.4.6L22.4,4.8A13.2,13.2,0,0,0,15.8,3.1Z" transform="translate(0.2 -0.3)"/><path class="cls-1" d="M17.2,17.6a2.5,2.5,0,0,1-1.4.6,2,2,0,0,1-1.4-.6L9.2,27.8a13.3,13.3,0,0,0,6.6,1.8,13.3,13.3,0,0,0,6.6-1.8Z" transform="translate(0.2 -0.3)"/><path class="cls-3" d="M11.4,8.7,11,8.2l-.8,2.2,2.4-.3-.5-.5a6.8,6.8,0,0,1,8.5,0l.8-.9A7.8,7.8,0,0,0,11.4,8.7Z" transform="translate(0.2 -0.3)"/></svg>